<?xml version="1.0" standalone="no"?><!DOCTYPE svg PUBLIC "-//W3C//DTD SVG 1.1//EN" "http://www.w3.org/Graphics/SVG/1.1/DTD/svg11.dtd"><svg t="1510580875180" class="icon" style="" viewBox="0 0 1024 1024" version="1.1" xmlns="http://www.w3.org/2000/svg" p-id="1797" xmlns:xlink="http://www.w3.org/1999/xlink" width="32" height="32"><defs><style type="text/css"></style></defs><path d="M975.36 808.96H41.984c-11.776 0-21.504-9.728-21.504-21.504V245.248c0-11.776 9.728-21.504 21.504-21.504h933.376c11.776 0 21.504 9.728 21.504 21.504V787.456c0 11.776-9.728 21.504-21.504 21.504z" fill="#52C0D1" p-id="1798"></path><path d="M20.48 323.584h976.384V516.096H20.48z" fill="#455C6E" p-id="1799"></path><path d="M79.36 553.472h219.648v202.752h-219.648z" fill="#FFFFFF" p-id="1800"></path><path d="M929.792 640.512H364.544c-10.752 0-19.456-8.704-19.456-19.456 0-10.752 8.704-19.456 19.456-19.456h565.248c10.752 0 19.456 8.704 19.456 19.456-0.512 10.752-9.216 19.456-19.456 19.456zM637.952 709.12h-273.408c-10.752 0-19.456-8.704-19.456-19.456 0-10.752 8.704-19.456 19.456-19.456h273.408c10.752 0 19.456 8.704 19.456 19.456 0 10.752-8.704 19.456-19.456 19.456z" fill="#455C6E" p-id="1801"></path><path d="M188.928 620.544m-39.936 0a39.936 39.936 0 1 0 79.872 0 39.936 39.936 0 1 0-79.872 0Z" fill="#455C6E" p-id="1802"></path><path d="M188.928 660.48c-37.888 0-68.608 30.72-68.608 68.608h137.216c0-37.888-30.72-68.608-68.608-68.608z" fill="#455C6E" p-id="1803"></path></svg>