<?xml version="1.0" standalone="no"?><!DOCTYPE svg PUBLIC "-//W3C//DTD SVG 1.1//EN" "http://www.w3.org/Graphics/SVG/1.1/DTD/svg11.dtd"><svg t="1510580883054" class="icon" style="" viewBox="0 0 1024 1024" version="1.1" xmlns="http://www.w3.org/2000/svg" p-id="1916" xmlns:xlink="http://www.w3.org/1999/xlink" width="32" height="32"><defs><style type="text/css"></style></defs><path d="M133.12 256h762.88v491.52H133.12z" fill="#00ADBB" p-id="1917"></path><path d="M312.32 542.72h66.56v174.08h-66.56zM404.48 465.92h56.32v250.88h-56.32zM481.28 496.64h61.44v220.16h-61.44zM563.2 430.08h61.44v286.72h-61.44zM645.12 378.88h71.68v337.92h-71.68z" fill="#5FCFD5" p-id="1918"></path><path d="M15.36 763.904v15.36s13.824 15.36 46.592 15.36h911.872s25.088-7.68 35.84-15.36v-15.36H15.36z" fill="#58585A" p-id="1919"></path><path d="M125.952 231.936s0.512 0 0 0c0.512 0 0 0 0 0zM127.488 231.936h2.048c-1.024-0.512-1.536-0.512-2.048 0z" fill="#929397" p-id="1920"></path><path d="M896.512 230.4H306.176l36.864 30.72h537.6v476.16h-39.424l33.28 25.6h22.016c8.704 0 14.848-6.656 14.848-15.36v-500.736c0-8.192-6.144-16.384-14.848-16.384z" fill="#333333" p-id="1921"></path><path d="M126.464 231.936h1.024-1.024zM117.76 748.032v-500.736s-2.048-9.216 4.096-13.312c3.072-2.56 7.168-3.584 7.168-3.584h177.152l36.864 30.72h-199.68v476.16h697.856l33.28 25.6H129.024s-11.264-0.512-11.264-14.848z" fill="#58585A" p-id="1922"></path></svg>