<?xml version="1.0" standalone="no"?><!DOCTYPE svg PUBLIC "-//W3C//DTD SVG 1.1//EN" "http://www.w3.org/Graphics/SVG/1.1/DTD/svg11.dtd"><svg t="1510581342877" class="icon" style="" viewBox="0 0 1024 1024" version="1.1" xmlns="http://www.w3.org/2000/svg" p-id="1104" xmlns:xlink="http://www.w3.org/1999/xlink" width="32" height="32"><defs><style type="text/css"></style></defs><path d="M852.4 1007.7H126.6V606.8l318.2-279.5 44.7-39.2 362.9 318.7z" fill="#FCD170" p-id="1105"></path><path d="M852.4 1017.7H126.6c-5.5 0-10-4.5-10-10v-401c0-2.9 1.2-5.6 3.4-7.5l362.9-318.7c3.8-3.3 9.4-3.3 13.2 0L859 599.3c2.2 1.9 3.4 4.6 3.4 7.5v401c0 5.4-4.5 9.9-10 9.9z m-715.8-20h705.8V611.3L489.5 301.4 136.6 611.3v386.4z" fill="" p-id="1106"></path><path d="M25.8 689.8l463.7-401.1" fill="#FCD170" p-id="1107"></path><path d="M25.8 699.8c-2.8 0-5.6-1.2-7.6-3.5-3.6-4.2-3.2-10.5 1-14.1L483 281.1c4.2-3.6 10.5-3.2 14.1 1 3.6 4.2 3.2 10.5-1 14.1L32.3 697.4c-1.9 1.6-4.2 2.4-6.5 2.4z" fill="" p-id="1108"></path><path d="M946.5 689.8L482.8 288.7" fill="#FCD170" p-id="1109"></path><path d="M946.5 699.8c-2.3 0-4.6-0.8-6.5-2.4L476.3 296.2c-4.2-3.6-4.6-9.9-1-14.1 3.6-4.2 9.9-4.6 14.1-1l463.7 401.2c4.2 3.6 4.6 9.9 1 14.1-2 2.3-4.8 3.4-7.6 3.4z" fill="" p-id="1110"></path><path d="M625.4 1007.7H353.6V703.5c0-2.4 1.9-4.3 4.3-4.3h263.3c2.4 0 4.3 1.9 4.3 4.3v304.2z" fill="#D64F34" p-id="1111"></path><path d="M625.4 1017.7H353.6c-5.5 0-10-4.5-10-10V703.5c0-7.9 6.4-14.3 14.3-14.3h263.3c7.9 0 14.3 6.4 14.3 14.3v304.3c-0.1 5.4-4.6 9.9-10.1 9.9z m-261.8-20h251.8V709.2H363.6v288.5z" fill="" p-id="1112"></path><path d="M996.9 441.3c0 167.7-98.7 236.4-220.5 236.4S555.8 609 555.8 441.3 776.3 3 776.3 3s220.6 270.6 220.6 438.3z" fill="#FFFFFF" p-id="1113"></path><path d="M776.3 751c-11.9 0-21.5-9.6-21.5-21.5V182.1c0-11.9 9.6-21.5 21.5-21.5s21.5 9.6 21.5 21.5v547.4c0 11.9-9.6 21.5-21.5 21.5z" fill="#FFFFFF" p-id="1114"></path><path d="M961.6 437.5c0 146.2-83 206.1-185.3 206.1S591 583.7 591 437.5s185.3-382 185.3-382 185.3 235.8 185.3 382z" fill="#60C13D" p-id="1115"></path><path d="M776.3 653.6c-56.6 0-104.3-17.7-138.1-51.1-38-37.6-57.2-93.1-57.2-164.9 0-62.5 31.6-146.9 94.1-251C721.2 109.7 768 50 768.5 49.4c1.9-2.4 4.8-3.8 7.9-3.8s6 1.4 7.9 3.8c0.5 0.6 47.2 60.3 93.4 137.2 62.4 104.1 94.1 188.5 94.1 251 0 71.8-19.3 127.3-57.2 164.9-33.9 33.4-81.7 51.1-138.3 51.1z m0-581.6c-15.1 20.1-49.8 67.8-84.2 125-41.5 69.4-91.1 167.3-91.1 240.5 0 66.3 17.3 117 51.3 150.7 29.9 29.6 72.8 45.3 124 45.3s94.1-15.7 124-45.3c34-33.8 51.3-84.5 51.3-150.7 0-73.2-49.5-171.2-91.1-240.5-34.3-57.2-69-104.9-84.2-125z" fill="" p-id="1116"></path><path d="M776.3 722.6c-5.5 0-10-4.5-10-10V165.2c0-5.5 4.5-10 10-10s10 4.5 10 10v547.4c0 5.5-4.5 10-10 10z" fill="" p-id="1117"></path><path d="M776.3 407.1c-2.7 0-5.5-1.1-7.4-3.3l-95.4-106.2c-3.7-4.1-3.4-10.4 0.8-14.1 4.1-3.7 10.4-3.4 14.1 0.8l95.4 106.2c3.7 4.1 3.4 10.4-0.8 14.1-1.9 1.7-4.3 2.5-6.7 2.5zM776.3 588.4c-2.8 0-5.6-1.2-7.6-3.5L634.6 427.4c-3.6-4.2-3.1-10.5 1.1-14.1 4.2-3.6 10.5-3.1 14.1 1.1l134.1 157.5c3.6 4.2 3.1 10.5-1.1 14.1-1.9 1.6-4.2 2.4-6.5 2.4zM776.3 300.9c-2.6 0-5.1-1-7.1-2.9-3.9-3.9-3.9-10.2 0-14.1l64.7-64.7c3.9-3.9 10.2-3.9 14.1 0 3.9 3.9 3.9 10.2 0 14.1L783.4 298c-2 1.9-4.5 2.9-7.1 2.9zM782.6 491.4c-2.7 0-5.5-1.1-7.4-3.3-3.7-4.1-3.3-10.4 0.8-14.1l94.3-84.5c4.1-3.7 10.4-3.3 14.1 0.8 3.7 4.1 3.3 10.4-0.8 14.1l-94.3 84.5c-1.9 1.6-4.3 2.5-6.7 2.5z" fill="" p-id="1118"></path></svg>