<?xml version="1.0" standalone="no"?><!DOCTYPE svg PUBLIC "-//W3C//DTD SVG 1.1//EN" "http://www.w3.org/Graphics/SVG/1.1/DTD/svg11.dtd"><svg t="1510581278505" class="icon" style="" viewBox="0 0 1024 1024" version="1.1" xmlns="http://www.w3.org/2000/svg" p-id="2277" xmlns:xlink="http://www.w3.org/1999/xlink" width="32" height="32"><defs><style type="text/css"></style></defs><path d="M918.016 189.44h-340.992c-32.768 0-59.904 26.624-59.904 59.904V757.248L642.048 650.24h275.968c32.768 0 59.904-26.624 59.904-59.904v-340.992c0-33.28-26.624-59.904-59.904-59.904z" fill="#09435B" p-id="2278"></path><path d="M439.296 261.12h-351.232C53.76 261.12 25.6 289.28 25.6 323.584v351.232c0 34.304 28.16 62.464 62.464 62.464h270.848L501.76 859.648V323.584c0-34.304-28.16-62.464-62.464-62.464z" fill="#FACC39" p-id="2279"></path><path d="M430.08 415.232c0 11.264-9.216 19.968-19.968 19.968H148.48c-11.264 0-19.968-9.216-19.968-19.968V404.48c0-11.264 9.216-19.968 19.968-19.968h261.632c11.264 0 19.968 9.216 19.968 19.968v10.752zM430.08 522.752c0 11.264-9.216 19.968-19.968 19.968H148.48c-11.264 0-19.968-9.216-19.968-19.968V511.488c0-11.264 9.216-19.968 19.968-19.968h261.632c11.264 0 19.968 9.216 19.968 19.968v11.264zM270.848 609.28c0 11.776-8.192 25.6-18.944 25.6h-118.272c-10.24 0-18.944-13.824-18.944-25.6s8.192-25.6 18.944-25.6h118.272c10.24 0 18.944 13.824 18.944 25.6z" fill="#09435B" p-id="2280"></path><path d="M885.76 328.192c0 11.264-9.216 19.968-19.968 19.968H599.04c-11.264 0-19.968-9.216-19.968-19.968V322.56c0-11.264 9.216-19.968 19.968-19.968h266.752c11.264 0 19.968 9.216 19.968 19.968v5.632zM885.76 435.712c0 11.264-9.216 19.968-19.968 19.968H599.04c-11.264 0-19.968-9.216-19.968-19.968V430.08c0-11.264 9.216-19.968 19.968-19.968h266.752c11.264 0 19.968 9.216 19.968 19.968v5.632zM732.16 527.36c0 8.704-6.656 15.36-15.36 15.36h-122.88c-8.704 0-15.36-6.656-15.36-15.36s6.656-15.36 15.36-15.36h122.88c8.704 0 15.36 6.656 15.36 15.36z" fill="#FACC39" p-id="2281"></path></svg>