<?xml version="1.0" standalone="no"?><!DOCTYPE svg PUBLIC "-//W3C//DTD SVG 1.1//EN" "http://www.w3.org/Graphics/SVG/1.1/DTD/svg11.dtd"><svg t="1510580870400" class="icon" style="" viewBox="0 0 1024 1024" version="1.1" xmlns="http://www.w3.org/2000/svg" p-id="1673" xmlns:xlink="http://www.w3.org/1999/xlink" width="32" height="32"><defs><style type="text/css"></style></defs><path d="M950.784 510.976L226.816 888.32 24.064 496.128 746.496 122.88l150.016 290.304z" fill="#475E70" p-id="1674"></path><path d="M939.52 604.16L154.624 827.904 35.328 402.432l782.848-219.648 88.576 314.88z" fill="#EF6062" p-id="1675"></path><path d="M829.44 794.624H79.872V353.28h813.056v327.168z" fill="#EDEDED" p-id="1676"></path><path d="M79.872 353.28h813.056V467.968H79.872z" fill="#54BFD1" p-id="1677"></path><path d="M577.024 390.144h263.68v43.008h-263.68zM610.816 551.936h-473.6c-3.072 0-5.632-2.56-5.632-5.632v-20.992c0-3.072 2.56-5.632 5.632-5.632h473.6c3.072 0 5.632 2.56 5.632 5.632v20.992c-0.512 3.072-2.56 5.632-5.632 5.632zM526.336 712.704h-389.632c-3.072 0-5.632-2.56-5.632-5.632V686.08c0-3.072 2.56-5.632 5.632-5.632h389.632c3.072 0 5.632 2.56 5.632 5.632v20.992c0 3.072-2.56 5.632-5.632 5.632zM698.368 632.32H136.704c-3.072 0-5.632-2.56-5.632-5.632v-20.992c0-3.072 2.56-5.632 5.632-5.632h561.664c3.072 0 5.632 2.56 5.632 5.632v20.992c0 3.072-2.56 5.632-5.632 5.632zM829.44 794.624l-27.648-74.752 91.136-39.424z" fill="#4B5C70" p-id="1678"></path><path d="M746.496 655.36l179.712-443.904c5.12-13.312 22.016-18.944 36.352-13.312 14.848 6.144 22.528 21.504 17.408 34.816l-179.712 443.904-53.76-21.504z" fill="#E6D770" p-id="1679"></path><path d="M800.256 677.376L746.496 655.36l7.168 60.416z" fill="#4B5C70" p-id="1680"></path><path d="M939.904 239.8464l11.392 4.61824-171.97056 424.17664-11.38688-4.61824z" fill="#F98762" p-id="1681"></path><path d="M906.24 262.144l20.48-50.176c5.12-13.312 22.016-18.944 36.352-13.312 14.848 6.144 22.528 21.504 17.408 34.816l-20.48 50.176-53.76-21.504z" fill="#F98762" p-id="1682"></path><path d="M985.088 281.6l-29.184-11.776c-1.536-0.512-2.048-2.56-1.536-4.096l4.608-10.752c0.512-1.536 2.56-2.048 4.096-1.536l29.184 11.776c1.536 0.512 2.048 2.56 1.536 4.096l-4.608 10.752c-1.024 1.024-2.56 2.048-4.096 1.536z" fill="#F98762" p-id="1683"></path><path d="M976.896 262.144l-51.2 126.464c-0.512 1.536 0 3.584 1.536 4.096l10.752 4.608c1.536 0.512 3.584 0 4.096-1.536l51.2-126.464c0.512-1.536 0-3.584-1.536-4.096l-10.752-4.608c-1.536-0.512-3.584 0-4.096 1.536z" fill="#F98762" p-id="1684"></path></svg>