<?xml version="1.0" standalone="no"?><!DOCTYPE svg PUBLIC "-//W3C//DTD SVG 1.1//EN" "http://www.w3.org/Graphics/SVG/1.1/DTD/svg11.dtd"><svg t="1510581240480" class="icon" style="" viewBox="0 0 1024 1024" version="1.1" xmlns="http://www.w3.org/2000/svg" p-id="2156" xmlns:xlink="http://www.w3.org/1999/xlink" width="32" height="32"><defs><style type="text/css"></style></defs><path d="M71.68 118.784h485.376V900.608H71.68z" fill="#AF7E27" p-id="2157"></path><path d="M593.408 646.144h386.048v265.728h-386.048zM314.368 788.992c-134.144 0-242.688-24.064-242.688-54.272v57.856c0 30.208 108.544 54.272 242.688 54.272s242.688-24.064 242.688-54.272V734.72c0 29.696-108.544 54.272-242.688 54.272zM314.368 676.352c-134.144 0-242.688-24.064-242.688-54.272v57.856c0 30.208 108.544 54.272 242.688 54.272s242.688-24.064 242.688-54.272V622.08c0 30.208-108.544 54.272-242.688 54.272zM314.368 564.224c-134.144 0-242.688-24.064-242.688-54.272v57.856c0 30.208 108.544 54.272 242.688 54.272s242.688-24.064 242.688-54.272V509.952c0 29.696-108.544 54.272-242.688 54.272zM314.368 901.12c-134.144 0-242.688-24.064-242.688-54.272v70.144c0 30.208 108.544 54.272 242.688 54.272s242.688-24.064 242.688-54.272V846.848c0 29.696-108.544 54.272-242.688 54.272zM314.368 227.328c-134.144 0-242.688-24.064-242.688-54.272v57.856c0 30.208 108.544 54.272 242.688 54.272s242.688-24.064 242.688-54.272v-57.856c0 29.696-108.544 54.272-242.688 54.272zM556.544 105.472c-5.632-28.672-111.616-51.712-242.176-51.712-130.56 0-236.544 23.04-242.176 51.712h-0.512v12.8c0 30.208 108.544 54.272 242.688 54.272s242.688-24.064 242.688-54.272v-12.8h-0.512zM314.368 451.584c-134.144 0-242.688-24.064-242.688-54.272V455.68c0 30.208 108.544 54.272 242.688 54.272S557.056 485.376 557.056 455.68v-57.856c0 29.696-108.544 53.76-242.688 53.76zM314.368 339.456c-134.144 0-242.688-24.064-242.688-54.272V343.04c0 30.208 108.544 54.272 242.688 54.272s242.688-24.064 242.688-54.272v-57.856c0 30.208-108.544 54.272-242.688 54.272z" fill="#E2A944" p-id="2158"></path><path d="M978.944 634.88c-4.608-23.04-89.088-40.96-192.512-40.96-103.424 0-187.904 18.432-192.512 40.96h-0.512v10.24c0 24.064 86.528 43.008 193.024 43.008s193.024-19.456 193.024-43.008l-0.512-10.24z" fill="#E6B141" p-id="2159"></path><path d="M786.432 910.336c-106.496 0-193.024-19.456-193.024-43.008v46.08c0 24.064 86.528 43.008 193.024 43.008s193.024-19.456 193.024-43.008v-46.08c0 23.552-86.016 43.008-193.024 43.008z" fill="#E2A944" p-id="2160"></path><path d="M314.368 167.424c-134.144 0-242.688-24.064-242.688-54.272v7.68c0 30.208 108.544 54.272 242.688 54.272s242.688-24.064 242.688-54.272v-7.68c0 30.208-108.544 54.272-242.688 54.272z" fill="#F9BB4E" p-id="2161"></path><path d="M314.368 221.696c-134.144 0-242.688-24.064-242.688-54.272v7.68c0 30.208 108.544 54.272 242.688 54.272s242.688-24.064 242.688-54.272v-7.68c0 29.696-108.544 54.272-242.688 54.272zM314.368 333.824c-134.144 0-242.688-24.064-242.688-54.272v7.68c0 30.208 108.544 54.272 242.688 54.272s242.688-24.064 242.688-54.272v-7.68c0 30.208-108.544 54.272-242.688 54.272zM314.368 445.952c-134.144 0-242.688-24.064-242.688-54.272v7.68c0 30.208 108.544 54.272 242.688 54.272s242.688-24.064 242.688-54.272v-7.68c0 30.208-108.544 54.272-242.688 54.272z" fill="#F9BB4E" p-id="2162"></path><path d="M786.432 688.128c-106.496 0-193.024-19.456-193.024-43.008v6.144c0 24.064 86.528 43.008 193.024 43.008s193.024-19.456 193.024-43.008V645.12c0 24.064-86.016 43.008-193.024 43.008zM786.432 741.888c-106.496 0-193.024-19.456-193.024-43.008v6.144c0 24.064 86.528 43.008 193.024 43.008s193.024-19.456 193.024-43.008v-6.144c0 23.552-86.016 43.008-193.024 43.008zM786.432 795.136c-106.496 0-193.024-19.456-193.024-43.008v6.144c0 24.064 86.528 43.008 193.024 43.008s193.024-19.456 193.024-43.008v-6.144c0 23.552-86.016 43.008-193.024 43.008zM786.432 848.896c-106.496 0-193.024-19.456-193.024-43.008v6.144c0 24.064 86.528 43.008 193.024 43.008s193.024-19.456 193.024-43.008v-6.144c0 23.552-86.016 43.008-193.024 43.008zM786.432 902.144c-106.496 0-193.024-19.456-193.024-43.008V865.28c0 24.064 86.528 43.008 193.024 43.008s193.024-19.456 193.024-43.008v-6.144c0 23.552-86.016 43.008-193.024 43.008z" fill="#AF7E27" p-id="2163"></path><path d="M314.368 556.544C180.224 556.544 71.68 532.48 71.68 502.272v7.68c0 30.208 108.544 54.272 242.688 54.272s242.688-24.064 242.688-54.272V502.272c0 30.208-108.544 54.272-242.688 54.272zM314.368 669.184c-134.144 0-242.688-24.064-242.688-54.272v7.68c0 30.208 108.544 54.272 242.688 54.272s242.688-24.064 242.688-54.272v-7.68c0 30.208-108.544 54.272-242.688 54.272zM314.368 783.36c-134.144 0-242.688-24.064-242.688-54.272v7.68c0 30.208 108.544 54.272 242.688 54.272s242.688-24.064 242.688-54.272v-7.68c0 29.696-108.544 54.272-242.688 54.272zM314.368 893.952c-134.144 0-242.688-24.064-242.688-54.272v7.68c0 30.208 108.544 54.272 242.688 54.272s242.688-24.064 242.688-54.272V839.68c0 30.208-108.544 54.272-242.688 54.272z" fill="#F9BB4E" p-id="2164"></path></svg>