<?xml version="1.0" standalone="no"?><!DOCTYPE svg PUBLIC "-//W3C//DTD SVG 1.1//EN" "http://www.w3.org/Graphics/SVG/1.1/DTD/svg11.dtd"><svg t="1510580856763" class="icon" style="" viewBox="0 0 1024 1024" version="1.1" xmlns="http://www.w3.org/2000/svg" p-id="1419" xmlns:xlink="http://www.w3.org/1999/xlink" width="32" height="32"><defs><style type="text/css"></style></defs><path d="M515.072 508.416m-508.416 0a508.416 508.416 0 1 0 1016.832 0 508.416 508.416 0 1 0-1016.832 0Z" fill="#00A98F" p-id="1420"></path><path d="M387.584 738.304v-455.168h256.512v455.168h-256.512z" fill="#FFFFFF" p-id="1421"></path><path d="M515.584 754.176c16.384 0 30.208 13.312 30.208 29.696 0 15.36-11.776 30.208-30.208 30.208-16.896 0-29.696-11.776-30.208-30.208 0-17.408 14.336-30.208 30.208-29.696zM521.728 222.72c-0.512 3.072-3.584 5.632-6.144 5.12-2.56-0.512-5.12-3.584-5.12-6.144s3.584-5.12 6.144-5.12c2.56 0.512 5.12 3.584 5.12 6.144z" fill="#424242" p-id="1422"></path><path d="M667.648 235.52c0-18.944-11.776-35.84-29.696-41.472-6.656-2.048-14.336-2.048-21.504-3.072 0-1.536-0.512-2.56-1.536-3.072-0.512-0.512-1.024-0.512-1.536-0.512h-44.032c-1.536 0-2.56 1.024-2.56 2.56v1.024h-155.648c-27.136 0-46.592 18.944-46.592 46.08v39.936h-2.048c-1.536 0-1.536 2.048-1.536 3.072v26.112c0 1.536 0.512 2.048 1.536 2.048h2.048v31.232h-2.048c-1.536 0-1.536 0.512-1.536 1.536v19.968c0 1.024 0.512 2.56 1.536 2.56h2.048v29.184h-2.048c-1.536 0-1.536 0-1.536 1.024v19.968c0 1.024 0.512 2.56 1.536 2.56h2.048v366.592c0 5.12 0.512 10.752 2.048 15.872 6.144 19.456 23.04 31.232 45.568 31.232h206.848c3.584 0 7.68 0 11.264-1.024 22.016-4.096 36.864-22.528 36.864-45.568v-477.696c0.512-23.04 0.512-46.592 0.512-70.144z m-157.184-13.824c0-2.56 3.584-5.12 6.144-5.12 2.56 0.512 5.12 3.072 5.12 5.632-0.512 3.072-3.584 5.632-6.144 5.12-3.072 0.512-5.632-2.56-5.12-5.632z m5.632 588.8c-15.36 0-27.136-10.752-27.136-27.136 0-15.872 12.8-27.136 27.136-27.136 14.848 0 27.136 12.288 27.136 27.136 0 13.824-10.24 27.136-27.136 27.136z m128-72.192h-257.024v-455.168h257.024v455.168z" fill="#58585A" p-id="1423"></path><path d="M516.096 783.36m-24.576 0a24.576 24.576 0 1 0 49.152 0 24.576 24.576 0 1 0-49.152 0Z" fill="#58585A" p-id="1424"></path><path d="M543.744 261.12h-61.44c-4.608 0-8.192-3.584-8.192-8.192 0-4.608 3.584-8.192 8.192-8.192h61.44c4.608 0 8.192 3.584 8.192 8.192 0 4.608-3.584 8.192-8.192 8.192z" fill="#424242" p-id="1425"></path><path d="M428.032 283.136h215.04l1.024 225.28z" fill="#E6E6E6" p-id="1426"></path></svg>